<svg xmlns="http://www.w3.org/2000/svg" width="300" height="44.477" viewBox="0 0 300 44.477"><g fill="#FFF"><path d="M121.939 0h-2.97c6.95 4.126 11.233 8.972 11.233 14.188 0 15.504-32.898 26.931-73.037 26.931-23.19 0-43.838-4.025-57.164-10.286V34.1c13.789 6.35 34.275 10.378 57.164 10.378 43.346 0 75.162-13.229 75.162-29.526-.001-5.464-3.79-10.559-10.388-14.952"/><path d="M103.82 25.581V14.63a10980.2 10980.2 0 0 0 7.322 10.951h3.811V8.543h-4.262V19.44c-1.355-2.051-7.178-10.878-7.178-10.878l-3.958-.003V25.58l4.265.001zm-21.888-4.349h5.861l1.746 4.35h4.869L86.947 8.561h-2.652l-7.6 17.021h3.375l1.862-4.35zm3.003-6.992l1.831 4.531h-3.794l1.963-4.531zm-12.16 8.474h-5.963V8.543h-4.188v17.038h10.15v-2.867zM4.769 8.553H0V25.58h4.769V8.553zm21.102 12.68l5.867-.001 1.741 4.35h4.871L30.888 8.561h-2.649l-7.604 17.021h3.379l1.857-4.349zm3.002-6.993l1.83 4.531h-3.795l1.965-4.531zm19.461 5.319h2.018a8.556 8.556 0 0 0 2.896-.387c1.387-.464 3.584-2.269 3.584-5.149 0-1.462-.365-2.652-1.09-3.539-1.11-1.373-2.955-2.013-5.803-2.013h-5.787V25.58h4.182v-6.021zm0-8.277h1.189c2.12 0 3.062.812 3.062 2.64 0 1.017-.297 1.827-.866 2.339-.425.379-.996.497-2.44.497 0 0-.604 0-.945.003v-5.479zM17.371 25.581l-5.485-8.451h-1.472l4.908-8.577h-3.644c-.003 0-4.97 8.577-4.97 8.577l5.392 8.451h5.271zm129.52-2.152h-2.279c.086-2.257.102-3.583.102-5.878 0-2.481-.016-3.872-.102-6.302h2.279a148.99 148.99 0 0 0-.107 6.302c.001 2.295.019 3.621.107 5.878m12.634-12.18h2.002c-.08 2.445-.098 3.819-.098 6.302 0 2.294.018 3.62.098 5.878h-2.033c-2.248-3.416-4.797-7.204-6.543-9.633 0 4.163 0 6.423.117 9.633h-2.002c.08-2.259.098-3.584.098-5.878 0-2.481-.018-3.873-.098-6.302h2.379c2.377 3.227 4.736 6.729 6.182 8.952 0-3.723 0-5.979-.102-8.952m11.385 12.18h-2.328c.123-2.429.137-3.822.137-6.303 0-1.63-.014-2.82-.066-4.33-1.75 0-3.023.016-4.303.116l.633-1.663h10.004v1.597c-1.033-.05-2.613-.05-4.127-.05-.066 1.524-.066 2.665-.066 4.33-.001 2.48.011 3.873.116 6.303m9.428-10.652a141.324 141.324 0 0 0-.049 3.653c1.695 0 3.57-.018 4.742-.088v1.685c-1.207-.068-3.094-.088-4.742-.088 0 1.446.018 2.654.049 3.961 1.803 0 4.107-.016 5.422-.082l-.646 1.613h-6.996c.082-2.262.098-3.584.098-5.881 0-2.48-.016-3.87-.098-6.299h7.084v1.597c-1.059-.071-3.077-.071-4.864-.071m11.148 10.652h-2.277c.086-2.259.102-3.583.102-5.878 0-2.48-.016-3.889-.102-6.302h3.465c3.021 0 4.928 1.119 4.928 3.381 0 1.547-.965 2.65-2.361 3.176.783 1.412 2.258 3.858 3.158 5.199l-2.295.832c-.916-1.578-2.035-3.757-2.834-5.386-.615.021-1.26.021-1.889 0 .019 1.783.039 3.518.105 4.978m-.052-10.633a162.12 162.12 0 0 0-.053 4.126c.223.019.615.019 1.053.019 1.951 0 2.992-.749 2.992-2.143 0-1.308-1.07-2.021-2.992-2.021-.389 0-.78 0-1 .019m18.841-1.547h2.008a149.447 149.447 0 0 0-.104 6.302c0 2.294.016 3.62.104 5.878h-2.041c-2.242-3.416-4.791-7.204-6.543-9.633 0 4.163 0 6.423.117 9.633h-2.004c.088-2.259.104-3.584.104-5.878 0-2.481-.016-3.873-.104-6.302h2.383a195.4 195.4 0 0 1 6.182 8.952c0-3.723 0-5.979-.102-8.952M215 23.429c1.479-2.99 3.939-8.58 5.467-12.267h2.074c1.273 3.482 3.281 8.461 4.967 12.267h-2.502c-.404-1.071-.883-2.259-1.309-3.431h-5.146a54.748 54.748 0 0 1-1.461 3.431H215zm4.146-4.963h4.041a265.544 265.544 0 0 1-1.92-5.249c-.544 1.479-1.357 3.399-2.121 5.249m14.647 4.963h-2.33c.119-2.429.141-3.822.141-6.303 0-1.63-.021-2.82-.072-4.33-1.75 0-3.027.016-4.297.116l.627-1.663h10.006v1.597c-1.035-.05-2.615-.05-4.127-.05-.068 1.524-.068 2.665-.068 4.33-.001 2.48.016 3.873.12 6.303m9.531 0h-2.277c.082-2.257.102-3.583.102-5.878 0-2.481-.02-3.872-.102-6.302h2.277c-.088 2.43-.105 3.819-.105 6.302 0 2.295.017 3.621.105 5.878m10.143-12.384c3.857 0 6.455 2.464 6.455 6.132 0 3.907-2.803 6.439-6.455 6.439-3.857 0-6.439-2.428-6.439-6.099.001-3.891 2.784-6.472 6.439-6.472m0 1.525c-2.5 0-4.061 1.924-4.061 4.76 0 2.871 1.629 4.756 4.061 4.756 2.498 0 4.094-1.898 4.094-4.756 0-2.872-1.666-4.76-4.094-4.76m18.347-1.321h2.006c-.076 2.1-.111 4.2-.105 6.302 0 2.294.023 3.62.105 5.878h-2.039c-2.244-3.416-4.789-7.204-6.543-9.633 0 4.163 0 6.423.121 9.633h-2.004c.084-2.259.1-3.584.1-5.878 0-2.481-.016-3.873-.1-6.302h2.379a196.463 196.463 0 0 1 6.18 8.952c0-3.723 0-5.979-.1-8.952m4.875 12.18c1.482-2.99 3.941-8.58 5.469-12.267h2.074c1.275 3.482 3.283 8.461 4.965 12.267h-2.492c-.416-1.071-.893-2.259-1.312-3.431h-5.148a51.824 51.824 0 0 1-1.465 3.431h-2.091zm4.147-4.963h4.045c-.703-1.831-1.377-3.721-1.924-5.249-.541 1.479-1.357 3.399-2.121 5.249m13.697 3.416c1.816 0 4.176-.031 5.467-.1l-.629 1.646h-7.064c.086-2.259.098-3.584.098-5.878 0-2.481-.012-3.873-.098-6.302h2.275a152.429 152.429 0 0 0-.104 6.302c.002 1.631.018 2.836.055 4.332"/></g></svg>